/* XPM */
static char *e72ed24f9d0e4299c3e483206308b80a[] = {
/* columns rows colors chars-per-pixel */
"64 64 187 2 ",
"   c #001E39",
".  c #002D58",
"X  c #032C49",
"o  c #003B65",
"O  c #39444B",
"+  c #05426C",
"@  c #054C7D",
"#  c #0A477A",
"$  c #344C78",
"%  c #4F4C4A",
"&  c #58504C",
"*  c #515151",
"=  c #5D5D5D",
"-  c #445F75",
";  c #4F687C",
":  c #6A6B6C",
">  c #757576",
",  c #004F86",
"<  c #0B4E81",
"1  c #124E86",
"2  c #0A5489",
"3  c #045082",
"4  c #0A5B95",
"5  c #115D9B",
"6  c #1A5595",
"7  c #2C4987",
"8  c #0C659B",
"9  c #0E6196",
"0  c #12619D",
"q  c #25648F",
"w  c #34639F",
"e  c #1D5CAE",
"r  c #1D56A6",
"t  c #1E5FB1",
"y  c #155EBA",
"u  c #0C5AAC",
"i  c #214CA3",
"p  c #2356A9",
"a  c #255CAE",
"s  c #2C5CAE",
"d  c #2955A8",
"f  c #3555AA",
"g  c #325BAD",
"h  c #3752A7",
"j  c #245FB0",
"k  c #2C5EB0",
"l  c #325EB0",
"z  c #0764A8",
"x  c #1166A3",
"c  c #1B64A6",
"v  c #1771AB",
"b  c #1971AC",
"n  c #0D66B3",
"m  c #0D6DB7",
"M  c #076EBA",
"N  c #0B6DBA",
"B  c #1365B4",
"V  c #1C65B4",
"C  c #136AB6",
"Z  c #1D6AB6",
"A  c #146CB9",
"S  c #1D6DB9",
"D  c #1F61BE",
"F  c #0875B9",
"G  c #1673B6",
"H  c #1D73BD",
"J  c #1E78BE",
"K  c #1C78B7",
"L  c #2261A4",
"P  c #2363AC",
"I  c #2A60AE",
"U  c #216CAF",
"Y  c #2464B4",
"T  c #2B64B3",
"R  c #2469B6",
"E  c #2C69B6",
"W  c #246DB9",
"Q  c #2C6DB9",
"!  c #3164B4",
"~  c #3268B7",
"^  c #316CBA",
"/  c #3A68BC",
"(  c #2473BD",
")  c #2C73BD",
"_  c #227ABD",
"`  c #2671B7",
"'  c #3272BD",
"]  c #3C72BE",
"[  c #486581",
"{  c #456DBB",
"}  c #4574BD",
"|  c #016BC8",
" . c #1E76C2",
".. c #1D7CC3",
"X. c #167FC7",
"o. c #336DC1",
"O. c #386FC3",
"+. c #2377C0",
"@. c #2C76C0",
"#. c #247CC3",
"$. c #2C7BC3",
"%. c #2E7CCA",
"&. c #3274C1",
"*. c #317CC4",
"=. c #327DC8",
"-. c #397ACC",
";. c #3D73C4",
":. c #327DD0",
">. c #457DC5",
",. c #4579C3",
"<. c #1F83BE",
"1. c #7F8184",
"2. c #0881C0",
"3. c #1C83C5",
"4. c #1D85C9",
"5. c #1F8BCB",
"6. c #1586C9",
"7. c #1F90CF",
"8. c #1E8CD3",
"9. c #1493D3",
"0. c #1C9AD9",
"q. c #1C94D3",
"w. c #0997D8",
"e. c #2382C7",
"r. c #2C81C6",
"t. c #2485C9",
"y. c #2C85C9",
"u. c #238ACC",
"i. c #2B8BCD",
"p. c #3080C6",
"a. c #3285CA",
"s. c #308ACD",
"d. c #3C89CC",
"f. c #2090CF",
"g. c #2B8ED0",
"h. c #2488D5",
"j. c #3585D1",
"k. c #328AD5",
"l. c #2494D2",
"z. c #2B94D3",
"x. c #2499D6",
"c. c #2B99D6",
"v. c #249EDA",
"b. c #2D9DDA",
"n. c #2994DF",
"m. c #319CDE",
"M. c #3798D4",
"N. c #1EA6DF",
"B. c #2CA3DD",
"V. c #27A0DC",
"C. c #30A1DC",
"Z. c #3BA6DD",
"A. c #2D9CE0",
"S. c #2A9CE9",
"D. c #319CE2",
"F. c #2BA8E4",
"G. c #32A1E3",
"H. c #33A9E3",
"J. c #33AEED",
"K. c #25B0ED",
"L. c #36B2E6",
"P. c #5287CD",
"I. c #418ED1",
"U. c #558FD6",
"Y. c #4592D3",
"T. c #4D9CDA",
"R. c #4C90D3",
"E. c #539ADA",
"W. c #5796D8",
"Q. c #4884CA",
"!. c #55A1DF",
"~. c #42ACE1",
"^. c #5DA9E3",
"/. c #57A3E0",
"(. c #59B8E6",
"). c #4AB3E9",
"_. c #65ACE6",
"`. c #66B0EA",
"'. c #6EB5EC",
"]. c #6DBBE6",
"[. c #5CC3F7",
"{. c #78C5EC",
"}. c #7BD4FC",
"|. c #85C9ED",
" X c #85C9EE",
".X c #93D2F1",
"XX c None",
/* pixels */
"XXXXXXXXXXXXXXXXXXXXXXXXXXXXXXXXXXXXXXXXXXXXXXXXXXXXXXXXXXXXXXXXXXXXXXXXXXXXXXXXXXXXXXXXXXXXXXXXXXXXXXXXXXXXXXXXXXXXXXXXXXXXXXXX",
"XXXXXXXXXXXXXXXXXXXXXXXXXXXXXXXXXXXXXXXXXXXXXXXXXXXXXXXXXXXXXXXXXXXXXXXXXXXXXXXXXXXXXXXXXXXXXXXXXXXXXXXXXXXXXXXXXXXXXXXXXXXXXXXX",
"XXXXXXXXXXXXXXXXXXXXXXXXXXXXXXXXXXXXXXXXXXXXXXXXXXXXXXXXXXXXXXXXXXXXXXXXXXXXXXXXXXXXXXXXXXXXXXXXXXXXXXXXXXXXXXXXXXXXXXXXXXXXXXXX",
"XXXXXXXXXXXXXXXXXXXXXXXXXXXXXXXXXXXXXXXXXXXXXXXXXXXXXXXXXXXXXXXXXXXXXXXXXXXXXXXXXXXXXXXXXXXXXXXXXXXXXXXXXXXXXXXXXXXXXXXXXXXXXXXX",
"XXXXXXXXXXXXXXXXXXXXXXXXXXXXXXXXXXXXXXXXXXXXXXXXXXXXXXXXXXXXXXXXXXXXXXXXXXXXXXXXXXXXXXXXXXXXXXXXXXXXXXXXXXXXXXXXXXXXXXXXXXXXXXXX",
"XXXXXXXXXXXXXXXXXXXXXXXXXXXXXXXXXXXXXXXXXXXXXXXXXXXXXXXXXXXXXXXXXXXXXXXXXXXXXXXXXXXXXXXXXXXXXXXXXXXXXXXXXXXXXXXXXXXXXXXXXXXXXXXX",
"XXXXXXXXXXXXXXXXXXXXXXXXXXXXXXXXXXXXXXXXXXXXXXXXXXXXXXXXXXXXXXXXXXXXXXXXXXXXXXXXXXXXXXXXXXXXXXXXXXXXXXXXXXXXXXXXXXXXXXXXXXXXXXXX",
"XXXXXXXXXXXXXXXXXXXXXXXXXXXXXXXXXXXXXXXXXXXXXXXXXXXXXXXXXXXXXXXXXXXXXXXXXXXXXXXXXXXXXXXXXXXXXXXXXXXXXXXXXXXXXXXXXXXXXXXXXXXXXXXX",
"XXXXXXXXXXXXXXXXXXXXXXXXXXXXXXXXXXXXXXXXXXXXXXXXXXXXXXXXXXXXXXXXXXXXXXXXXXXXXXXXXXXXXXXXXXXXXXXXXXXXXXXXXXXXXXXXXXXXXXXXXXXXXXXX",
"XXXXXXXXXXXXXXXXXXXXXXXXXXXXXXXXXXXXXXXXXXXXXXXXXXXXXXXXXXXXXXXXXXXXXXXXXXXXXXXXXXXXXXXXXXXXXXXXXXXXXXXXXXXXXXXXXXXXXXXXXXXXXXXX",
"XXXXXXXXXXXXXXXXXXXXXXXXXXXXXXXXXXXXXXXXXXXXXXXXXXXXXXXXXXXXXXXXXXXXXXXXXXXXXXXXXXXXXXXXXXXXXXXXXXXXXXXXXXXXXXXXXXXXXXXXXXXXXXXX",
"XXXXXXXXXXXXXXXXXXXXXXXXXXXXXXXXXXXXXXXXXXXXXXXXXXXXXXXXXXXXXXXXXXXXXXXXXXXXXXXXXXXXXXXXXXXXXXXXXXXXXXXXXXXXXXXXXXXXXXXXXXXXXXXX",
"XXXXXXXXXXXXXXXXXXXXXXXXXXXXXXXXXXXXXXXXXXXXXXXXXXXXXXXXXXXXXXXXXXXXXXXXXXXXXXXXXXXXXXXXXXXXXXXXXXXXXXXXXXXXXXXXXXXXXXXXXXXXXXXX",
"XXXXXXXXXXXXXXXXXXXXXXXXXXXXXX6 XXXXXXXXXXXXXXXXXXXXXXXXXXXXXXXXXXXXXXXXXXXXXXXXXXXXXXXXXXXXXXXXXXXXXXXXXXXXXXXXXXXXXXXXXXXXXXXX",
"XXXXXXXXXXXXXXXXXXXXXXXXXXXXI 1 1 P 4 XXXXXXXXXXXXXXXXXXXXXXXXXXXXXXXXXXXXXXC H m XXXXXXXXXXXXXXXXXXXXXXXXXXXXXXXXXXXXXXXXXXXXXX",
"XXXXXXXXXXXXXXXXXXXXXXXXXXr T T ;.O.2 XXXXXXXXXXXXXXXXXXXXXXXXXXXXXXXXXXXX< :.] ^ XXXXXXXXXXXXXXXXXXXXXXXXXXXXXXXXXXXXXXXXXXXXXX",
"XXXXXXXXXXXXXXXXXXXXXXB g ! ^ o.^ L + XXXXXXXXXXXXXXXXXXXXXXXXXXXXXXXXXXXXXX2 $.) A A Z R E Z XXXXXX* : * XXXXXXXXXXXXXXXXXXXXXX",
"XXXXXXXXXXXXXXXXXXXXB g ! ~ I o XXXXXXXXXXXXXXXXXXXXXXXXXXXXXXXXXXXXXXXXX. .U @.) ' ' ^ ~ ~ / | XXXXXXXX= : XXXXXXXXXXXXXXXXXXXX",
"XXXXXXXXXXXXXXXXXXXXs ! ! o.3 XXXX5 XXXXXXXXXXXXXXXXXXXXXXXXXXXXXX0 k.*.=.p.%.) ) ) Q ) ^ R E o.XXXXXXXXXX= > XXXXXXXXXXXXXXXXXX",
"XXXXXXXXXXXXXXXXXXB l T Y E P Z -.c XXXXXXXXXXXXXXXXXXXXXXXXXXXXXX@ k.r.r.%.$.$.$.$.) &.$.XXXXXXXXXXXXXXXXXX: XXXXXXXXXXXXXXXXXX",
"XXXXXXXXXXXXXXXXXXI ! L Y 5 ^ -.&.9 XXXXXXXXXXXXXXXXXXXXXXXXXXXXXXX G k.r.r.#.$.$.$.) &.H XXXXXXXXXXXXXXXXXX% 1.XXXXXXXXXXXXXXXX",
"XXXXXXXXXXXXXXXXn I I E L 2 ` U ( 0 XXXXXXXXXXXXXXXXXXXXXXXXXXK ; q e.g.y.r.r.r.$.@._ ( ) +.H V / V XXXXXXXXXX& XXXXXXXXXXXXXXXX",
"XXXXXXXXXXXXXXXXd T P E L c W W %.c XXXXXXXXXXXXXXXXXXXXO x S.m.S.n.g.i.r.y.y.r.$.+.+.@.( ) O.O.~ T XXXXXXXXXXXXXXXXXXXXXXXXXXXX",
"XXXXXXXXXXXXXXB r P Y T ^ ) &.%.j.m XXXXXXXXXXXXXXXXXXXX. z D.z.8.XXo t.z.i.y.s..._ *.*.H ( ) ` ` ~ N XXXXXXXXXX[ XXXXXXXXXXXXXX",
"XXXXXXXXXXXXXXB j T ~ Q E &.%. .h.5 XXXXXXXXXXXXXXXXXXXXXXXXXXXXXXXX  b D.i.i.y.r.J J ( S H ( W W E S Y k k w - y XXXXXXXXXXXXXX",
"XXXXXXXXXXXXXXa T T ~ Q &.( # XXXXXXXXXXXXXXXXXXXXXXXXXXXXXXXXXXXXXXXX3 D.u.t.e.e.y.y.Y.E.@.` ) Q ~ W T l g W XX$ | XXXXXXXXXXXX",
"XXXXXXXXXXXXXXs R ~ E Q &., XXXXXXXXXXXXXXXXXXXXXXXXXXXXXXXXXXXXXXXXXX8 l.u.t.t.#.T.'.a.d.=.) ) ^ ^ E Y k s D XX7 | XXXXXXXXXXXX",
"XXXXXXXXXXXXn k T T Q ) &.x XXx k._ XXXXXXXXXXXXXXXXXXXXXXXX9 v 3.g.C.8.i.k.g.i.t.s.`.d.I.$.) ) S W W W k k ,.U.O.n XXXXXXXXXXXX",
"XXXXXXXXXXXXC ! T ^ ` Z ( *.$.r.k._ XXXXXXXXXXXXXXXXXXXXz F.J.J.H.B.C.4.t.z.i.i.u...`.^.Y.$.( H ( W S E p >.;.{ W.u XXXXXXXXXXXX",
"XXXXXXXXXXXXC I ~ E V ` ( +.=.p.a._ 3 XXXX9 b 4.m.3.XXXXXXXXB.F.b.b.C.f.4.c.z.i.y...^.!.C E.a.S ' Q E R r U.,.i P.V XXXXXXXXXXXX",
"XXXXXXXXXXXXB Y ~ V Z ] ( ( ( H J #.G _ z.D.D.G.B.XXXXXXXX8 J.v.q.x.l.f.l.z.z.i.i...!.'.I.T.*.W ( W W W a ,.W.>.{ r XXXXXXXXXXXX",
"XXXXXXXXXXXXj T ~ T C ) ( H _ _ #.a.u.g.k.z.z.c.m.F 4 8 2.K.F.x.v.b.b.l.c.z.z.i.i.y.s.e...A  .&.) Q ^ W E d ,.,.d d XXXXXXXXXXXX",
"XXXXXXXXXXXXa I Z W W ` ) $.*.$.r.y.e.t.g.g.g.c.l.).[.[.}.L.9.0.F.v.f.u.5.l.z.i.i.i. ...r.$.+.( ' Q ^ W R R e i g t XXXXXXXXXXXX",
"XXXXXXXXXXXXZ V R ~ ^ Y ) ) $.r.$.y.e.<.s.g.l.c.9.]..Xv.{..XN.0.l.7.l.C.5.5.z.i.i.i.e.#.r.@.+.( ( ( W S Z Y Y t j B XXXXXXXXXXXX",
"XXXXXXXXXXXXV T E T ' ^.d.W $.J J <.<.y.z.g.g.z.l.Z.{.N.w..X(.N.V.B.B.C.l.u.M.g.t.t.e...$.$.+.( ( ( ~ W T l k s a e XXXXXXXXXXXX",
"XXXXXXXXXXXXB k R T Y '.E.R J J p.r.e.t.i.g.z.z.c.l.|.Z.B.|.Z.N.F.B.x.l.3.4.u.5.4.e.e.r.r.$.$.) ) Q ~ R R T k Y a B XXXXXXXXXXXX",
"XXXXXXXXXXXXC Y Z Q t R._.R (  .$.#.t...t.g.g.z.c.q. X{.(.~.0.l.7.5.u.u.4.3.i.u.i.s.r.r.r.@.@.' Q ` E W R k s I a B XXXXXXXXXXXX",
"XXXXXXXXXXXXXXV T ~ E ' `.$.) @.#.e.a.t.3.g.z.z.l.g.M.Z.b.0.7.5.l.x.b.b.x.5.g.i.i.y.r.r.$.@.$.( ( W W W T T k f s M XXXXXXXXXXXX",
"XXXXXXXXXXXXXXZ ! T ~ V `./.A @.p.p.y.s.3.4.u.4.t.5.6.<.l.b.x.l.b.c.c.z.z.3.u.i.y.y.r.r.$.@.@.H W ^ W T ! k s s j XXXXXXXXXXXXXX",
"XXXXXXXXXXXXXXN Y R ~ S a.Q.H ( $.#.#.e.J <.t.u.l.c.c.6.g.z.l.5.c.z.f.t.u.5.i.s.y.y.r.$.$.+.) ( W W W R ! s s f V XXXXXXXXXXXXXX",
"XXXXXXXXXXXXXXXXk Z ^ ^ B R )  .+.#.#.r.y.t.s.g.g.g.z.t.3.5.5.c.g.5.i.i.t.u.i.y.y.r.$.#.+.( ( Q ` Q E R l s s h B XXXXXXXXXXXXXX",
"XXXXXXXXXXXXXXXXk T W R W ( ' +.$.$.r.y.y.e.t.i.i.g.g.l.l.i.z.z.5.5.g.t.u.3.e.a.r.r.#.+.@.) ( ) ^ T W Y Y k s a XXXXXXXXXXXXXXXX",
"XXXXXXXXXXXXXXXXC Y A W ` Q ) &.@.$.$.#.r.e.e.i.u.i.g.g.g.i.i.i.i.t.5.t.i.e...a.y.*.+. .@.( H W W R Z Y I Y s B XXXXXXXXXXXXXXXX",
"XXXXXXXXXXXXXXXXXXY I E ^ Q ` ) ) @.+.+.#.#.r.p.y.i.y.y.i.i.i.i.u.i.s.s.a.e...e.#.+.+._ ) ) W E E E R l a Y j XXXXXXXXXXXXXXXXXX",
"XXXXXXXXXXXXXXXXXXN k R T Q Q ) ) _ H $.$.#.#.e.y.y.y.y.y.s.s.y.s.t.e.#.e.+...+.+.@.) ) ) ) ^ ~ ! Y R l a j B XXXXXXXXXXXXXXXXXX",
"XXXXXXXXXXXXXXXXXXXXY Y E ~ Q Q ) ) @.(  .#.$.+.r.p.y.y.e.e.r.s.e...e.e.r.#.#.*.$.$.) ) ) Q W W R Y k k f V XXXXXXXXXXXXXXXXXXXX",
"XXXXXXXXXXXXXXXXXXXXXXY T Q Q Q W ( ( ) *.$.*.#. .e.#.#.#...#.a.e.#.r.r.$.$...$.) ) ) ) ^ W Z R Y T k g a M XXXXXXXXXXXXXXXXXXXX",
"XXXXXXXXXXXXXXXXXXXXXXN Y W ~ ` S ^ ( H ) +.+.+...+.#.r.p.#...#.#.+.$.+.+.+.( ) ) ) ) W E E ` R Z l k f C XXXXXXXXXXXXXXXXXXXXXX",
"XXXXXXXXXXXXXXXXXXXXXXXXZ s Y ^ W S Q W  .( +.&.@.+.$.$.$.$.#.+.+.$. .+.@.+.+.@.@.Q W W W E ! Y T s h t XXXXXXXXXXXXXXXXXXXXXXXX",
"XXXXXXXXXXXXXXXXXXXXXXXXXXY j Z E R Q ^ Q ) ) @.+.( ) @.@.@.@.$.&.@.( +.( +.S ^ Q Q W E Z R Y Z Y j V XXXXXXXXXXXXXXXXXXXXXXXXXX",
"XXXXXXXXXXXXXXXXXXXXXXXXXXXXA R R ! T E Q Q ` W ) ( ( ) ) ) ) ) ) ) &.) Q ( S H W W R E R T V I Y C XXXXXXXXXXXXXXXXXXXXXXXXXXXX",
"XXXXXXXXXXXXXXXXXXXXXXXXXXXXXXC T R Q ~ Q Q Q W ` ( W H ^ ) ) ) ) ) W ( S W S E R E T T T Y g k N XXXXXXXXXXXXXXXXXXXXXXXXXXXXXX",
"XXXXXXXXXXXXXXXXXXXXXXXXXXXXXXXXN A T ! ~ E E W W E / W H W W ( S ` W S Q E W Q ! ! T Z Y s k M XXXXXXXXXXXXXXXXXXXXXXXXXXXXXXXX",
"XXXXXXXXXXXXXXXXXXXXXXXXXXXXXXXXXXXXA R T T R R W W W W S S W T W W W W W W Y T T k Y V f Y XXXXXXXXXXXXXXXXXXXXXXXXXXXXXXXXXXXX",
"XXXXXXXXXXXXXXXXXXXXXXXXXXXXXXXXXXXXXXXXV Y R Z T E R ~ ^ W W ~ ~ E T T Y Y Y T Z V Y V C XXXXXXXXXXXXXXXXXXXXXXXXXXXXXXXXXXXXXX",
"XXXXXXXXXXXXXXXXXXXXXXXXXXXXXXXXXXXXXXXXXXXXM W T T l l T Z Y R T T T T Y Y Y k A M M XXXXXXXXXXXXXXXXXXXXXXXXXXXXXXXXXXXXXXXXXX",
"XXXXXXXXXXXXXXXXXXXXXXXXXXXXXXXXXXXXXXXXXXXXXXXXM N V Y I Y A Z Z Z Z V Z C C M XXXXXXXXXXXXXXXXXXXXXXXXXXXXXXXXXXXXXXXXXXXXXXXX",
"XXXXXXXXXXXXXXXXXXXXXXXXXXXXXXXXXXXXXXXXXXXXXXXXXXXXXXXXXXXXXXXXXXXXXXXXXXXXXXXXXXXXXXXXXXXXXXXXXXXXXXXXXXXXXXXXXXXXXXXXXXXXXXXX",
"XXXXXXXXXXXXXXXXXXXXXXXXXXXXXXXXXXXXXXXXXXXXXXXXXXXXXXXXXXXXXXXXXXXXXXXXXXXXXXXXXXXXXXXXXXXXXXXXXXXXXXXXXXXXXXXXXXXXXXXXXXXXXXXX",
"XXXXXXXXXXXXXXXXXXXXXXXXXXXXXXXXXXXXXXXXXXXXXXXXXXXXXXXXXXXXXXXXXXXXXXXXXXXXXXXXXXXXXXXXXXXXXXXXXXXXXXXXXXXXXXXXXXXXXXXXXXXXXXXX",
"XXXXXXXXXXXXXXXXXXXXXXXXXXXXXXXXXXXXXXXXXXXXXXXXXXXXXXXXXXXXXXXXXXXXXXXXXXXXXXXXXXXXXXXXXXXXXXXXXXXXXXXXXXXXXXXXXXXXXXXXXXXXXXXX",
"XXXXXXXXXXXXXXXXXXXXXXXXXXXXXXXXXXXXXXXXXXXXXXXXXXXXXXXXXXXXXXXXXXXXXXXXXXXXXXXXXXXXXXXXXXXXXXXXXXXXXXXXXXXXXXXXXXXXXXXXXXXXXXXX",
"XXXXXXXXXXXXXXXXXXXXXXXXXXXXXXXXXXXXXXXXXXXXXXXXXXXXXXXXXXXXXXXXXXXXXXXXXXXXXXXXXXXXXXXXXXXXXXXXXXXXXXXXXXXXXXXXXXXXXXXXXXXXXXXX",
"XXXXXXXXXXXXXXXXXXXXXXXXXXXXXXXXXXXXXXXXXXXXXXXXXXXXXXXXXXXXXXXXXXXXXXXXXXXXXXXXXXXXXXXXXXXXXXXXXXXXXXXXXXXXXXXXXXXXXXXXXXXXXXXX"
};
