/* XPM */
static char *f4ee893fc51e4f75c5b3912fdf308e0c[] = {
/* columns rows colors chars-per-pixel */
"16 16 98 2 ",
"   c #055495",
".  c #165697",
"X  c #1C5FB0",
"o  c #2F5AAD",
"O  c #305BAE",
"+  c #225FB0",
"@  c #265FB0",
"#  c #0A62A4",
"$  c #136EAF",
"%  c #1572AB",
"&  c #0F6AB8",
"*  c #1266B3",
"=  c #1466B6",
"-  c #1C65B4",
";  c #1F67B6",
":  c #1768B7",
">  c #1F6EB2",
",  c #1F69B5",
"<  c #0772B5",
"1  c #1674B7",
"2  c #2860AF",
"3  c #3061AF",
"4  c #2562B3",
"5  c #2164B4",
"6  c #2465B5",
"7  c #2767B5",
"8  c #2960B1",
"9  c #2E63B3",
"0  c #2F66B5",
"q  c #2368B5",
"w  c #2468B5",
"e  c #2768B6",
"r  c #2668B7",
"t  c #2B69B7",
"y  c #2967B9",
"u  c #276FBB",
"i  c #2568BF",
"p  c #216DBD",
"a  c #296AB8",
"s  c #286DBA",
"d  c #3365B4",
"f  c #3166B5",
"g  c #3067B9",
"h  c #306CB9",
"j  c #306FBB",
"k  c #3C6FBF",
"l  c #2772BD",
"z  c #2474BE",
"x  c #2674BE",
"c  c #2B72BD",
"v  c #2D71BE",
"b  c #2974BE",
"n  c #2975BE",
"m  c #3675BF",
"M  c #3B73BE",
"N  c #2977C0",
"B  c #2778C0",
"V  c #257AC2",
"C  c #267AC2",
"Z  c #217CC2",
"A  c #277FC6",
"S  c #2979C0",
"D  c #297AC2",
"F  c #287CC3",
"G  c #297CC3",
"H  c #317FC5",
"J  c #1B96D4",
"K  c #2980C6",
"L  c #2982C7",
"P  c #208EC5",
"I  c #2583C8",
"U  c #2684C8",
"Y  c #2784C9",
"T  c #2686CD",
"R  c #2C83C8",
"E  c #2E81CF",
"W  c #2489CB",
"Q  c #2589CC",
"!  c #258ACC",
"~  c #268BCD",
"^  c #258BCE",
"/  c #268FCF",
"(  c #288BCD",
")  c #3182C8",
"_  c #3483C8",
"`  c #3A80C8",
"'  c #268FD0",
"]  c #318CD4",
"[  c #2293D1",
"{  c #2C9CD7",
"}  c #3F93D5",
"|  c #3D94D4",
" . c #329CD7",
".. c #2B9DE2",
"X. c #2DA9E8",
"o. c #47B9EA",
"O. c #56BCED",
"+. c None",
/* pixels */
"+.+.+.+.+.+.+.+.+.+.+.+.+.+.+.+.",
"+.+.+.+.+.+.+.+.+.+.+.+.+.+.+.+.",
"+.+.+.+.+.+.+.+.+.+.+.+.+.+.+.+.",
"+.+.+..   +.+.+.+.+.+.+.+.+.+.+.",
"+.+.: 3 +.+.+.+.# E v * +.+.+.+.",
"+.+.2 p +.+.+.+.$ ] D , +.+.+.+.",
"+.= g > +.+.+.+.% W } ` i y +.+.",
"+.4 w D 1 < +.P X./ | ) q k +.+.",
"+.X H H T ..O.o.J / I C s @ +.+.",
"+.+.k _ Z ~  .{ [ ~ R N t o +.+.",
"+.+.q h C I ~ ~ ( U D l 9 + +.+.",
"+.+.+.f c C L L A C n t O +.+.+.",
"+.+.+.& 0 h x n x u f 8 +.+.+.+.",
"+.+.+.+.+.q 6 r w 6 - +.+.+.+.+.",
"+.+.+.+.+.+.+.+.+.+.+.+.+.+.+.+.",
"+.+.+.+.+.+.+.+.+.+.+.+.+.+.+.+."
};
