/* XPM */
static char *c69a39e550684e7ab45b4654139070c5[] = {
/* columns rows colors chars-per-pixel */
"32 32 117 2 ",
"   c #033B62",
".  c #013F68",
"X  c #0E4A75",
"o  c #6F6D6C",
"O  c #0F4F84",
"+  c #065084",
"@  c #0A528B",
"#  c #175893",
"$  c #125F9C",
"%  c #1C599B",
"&  c #265E89",
"*  c #2C5892",
"=  c #1D608E",
"-  c #126395",
";  c #2B6F9C",
":  c #195FA1",
">  c #1F5AAC",
",  c #245CAD",
"<  c #2A5CAE",
"1  c #3756AA",
"2  c #325AAD",
"3  c #275EB0",
"4  c #2C5FB3",
"5  c #345DB0",
"6  c #1C61A1",
"7  c #196CA4",
"8  c #1363A8",
"9  c #1D62AF",
"0  c #126AA9",
"q  c #1B71A4",
"w  c #1573AD",
"e  c #0E69B7",
"r  c #0C6CB9",
"t  c #1266B5",
"y  c #1C64B4",
"u  c #1369B7",
"i  c #1B6BB6",
"p  c #116BB8",
"a  c #1C6EB9",
"s  c #1E7FB0",
"d  c #1571BF",
"f  c #1C71BC",
"g  c #1C7EBC",
"h  c #2265A2",
"j  c #266EA4",
"k  c #2C62AF",
"l  c #2465B4",
"z  c #2C63B3",
"x  c #246AB6",
"c  c #2B69B6",
"v  c #256DB9",
"b  c #2B6DB9",
"n  c #3264B4",
"m  c #3367BB",
"M  c #3B65BB",
"N  c #326DBC",
"B  c #2573BD",
"V  c #2A73BD",
"C  c #3174BE",
"Z  c #3C71BC",
"A  c #4273BE",
"S  c #177DC4",
"D  c #1B7AC1",
"F  c #2577C0",
"G  c #2C77C1",
"H  c #247BC2",
"J  c #2B7BC3",
"K  c #3375C4",
"L  c #3F7DC6",
"P  c #277BD5",
"I  c #2C7FD5",
"U  c #1586CA",
"Y  c #1E8BCD",
"T  c #1E94D4",
"R  c #1E9AD7",
"E  c #2582C7",
"W  c #2B81C6",
"Q  c #2585CA",
"!  c #2B85C9",
"~  c #248BCC",
"^  c #2A8BCD",
"/  c #3380C6",
"(  c #3585CB",
")  c #358CCE",
"_  c #3A89CD",
"`  c #2B84D4",
"'  c #2E8ED0",
"]  c #368AD7",
"[  c #2492D1",
"{  c #2A92D2",
"}  c #2798D5",
"|  c #2092DE",
" . c #2A95DB",
".. c #269EDA",
"X. c #2C99DC",
"o. c #3092D6",
"O. c #3D93D3",
"+. c #36A5DD",
"@. c #33A9DE",
"#. c #1EA2E0",
"$. c #37ADF1",
"%. c #34B3F3",
"&. c #428BCF",
"*. c #5787CE",
"=. c #4D8CD0",
"-. c #4993D4",
";. c #4D97D8",
":. c #46A6DC",
">. c #49ACE2",
",. c #56A3E0",
"<. c #5CA7E3",
"1. c #42B0E3",
"2. c #51B6E6",
"3. c #5AB9E7",
"4. c #5AC8F7",
"5. c #5EC9FA",
"6. c None",
/* pixels */
"6.6.6.6.6.6.6.6.6.6.6.6.6.6.6.6.6.6.6.6.6.6.6.6.6.6.6.6.6.6.6.6.",
"6.6.6.6.6.6.6.6.6.6.6.6.6.6.6.6.6.6.6.6.6.6.6.6.6.6.6.6.6.6.6.6.",
"6.6.6.6.6.6.6.6.6.6.6.6.6.6.6.6.6.6.6.6.6.6.6.6.6.6.6.6.6.6.6.6.",
"6.6.6.6.6.6.6.6.6.6.6.6.6.6.6.6.6.6.6.6.6.6.6.6.6.6.6.6.6.6.6.6.",
"6.6.6.6.6.6.6.6.6.6.6.6.6.6.6.6.6.6.6.6.6.6.6.6.6.6.6.6.6.6.6.6.",
"6.6.6.6.6.6.6.6.6.6.6.6.6.6.6.6.6.6.6.6.6.6.6.6.6.6.6.6.6.6.6.6.",
"6.6.6.6.6.6.6.@ 6.6.6.6.6.6.6.6.6.6.6.6.6.6.6.6.6.6.6.6.6.6.6.6.",
"6.6.6.6.6.6.6.n k + 6.6.6.6.6.6.6.6.6.x f 6.6.6.6.6.6.6.6.6.6.6.",
"6.6.6.6.6.y M % O 6.6.6.6.6.6.6.6.6.0 c G b m P 6.6.o 6.6.6.6.6.",
"6.6.6.6.6.5 z 6 $ 6.6.6.6.6.6.6.  ! ] J C K h 6.6.6.6.6.6.6.6.6.",
"6.6.6.6.9 k : C a 6.6.6.6.6.6.6.; Q ! W J G a # i 6.6.6.6.6.6.6.",
"6.6.6.6., k b I d 6.6.6.6.6.X | S 7 o.^ H f F K c 6.6.6.6.6.6.6.",
"6.6.6.t z N i & 6.6.6.6.6.6.6.6.6..  .^ ! _ J v b m 4 * 6.6.6.6.",
"6.6.6.y n K 8 6.j 6.6.6.6.6.6.- q g ~ Q O.<./ B v l n Z x 6.6.6.",
"6.6.6.y n x G ` Q 6.6.w 0 6.6.%.%.X.~ { ! ,.-.H a l Z *.C 6.6.6.",
"6.6.6.l l v B H H Q X.$.[ = s #...[ [ { ^ ) ( G b l c A < 6.6.6.",
"6.6.6.y c C C H ! Q ^ Y >.4.4.@.R } [ { ^ D B B V v y , > 6.6.6.",
"6.6.6.y < =.&.a g E ^ [ :.3.2.1.R } Y Q Q W J G V v z < 9 6.6.6.",
"6.6.6.p z L ;.f ! W ~ [ } :.+.T } } Y Q ^ W J C v x z 2 t 6.6.6.",
"6.6.6.6.z b ( G H W E Q ~ U Y [ } { ~ ^ ! W G B v l n 1 t 6.6.6.",
"6.6.6.6.l x x V G W E ^ ' { Q { Q Q Q Q W H f B b l < < 6.6.6.6.",
"6.6.6.6.r z b V G H H E ! ^ ' ' ^ ^ E H J F V b x l < t 6.6.6.6.",
"6.6.6.6.6.x n b B B H J W Q Q ! E W H H G C b b c 2 3 6.6.6.6.6.",
"6.6.6.6.6.6.z N v B H G H J H J H H H F C V v x z 1 6.6.6.6.6.6.",
"6.6.6.6.6.6.e z b b v V F G G F F B B B V v l l < t 6.6.6.6.6.6.",
"6.6.6.6.6.6.6.r z n m v v B V B V B v v c z z 3 r 6.6.6.6.6.6.6.",
"6.6.6.6.6.6.6.6.6.i n b v c v v b x x z 5 l l 6.6.6.6.6.6.6.6.6.",
"6.6.6.6.6.6.6.6.6.6.6.u l n k x z n l l u 6.6.6.6.6.6.6.6.6.6.6.",
"6.6.6.6.6.6.6.6.6.6.6.6.6.6.u r u e 6.6.6.6.6.6.6.6.6.6.6.6.6.6.",
"6.6.6.6.6.6.6.6.6.6.6.6.6.6.6.6.6.6.6.6.6.6.6.6.6.6.6.6.6.6.6.6.",
"6.6.6.6.6.6.6.6.6.6.6.6.6.6.6.6.6.6.6.6.6.6.6.6.6.6.6.6.6.6.6.6.",
"6.6.6.6.6.6.6.6.6.6.6.6.6.6.6.6.6.6.6.6.6.6.6.6.6.6.6.6.6.6.6.6."
};
